<?xml version="1.0" encoding="utf-8"?>
<!-- Generator: Adobe Illustrator 19.2.1, SVG Export Plug-In . SVG Version: 6.00 Build 0)  -->
<svg version="1.1" id="Layer_1" xmlns="http://www.w3.org/2000/svg" xmlns:xlink="http://www.w3.org/1999/xlink" x="0px" y="0px"
	 viewBox="0 0 86.2 86.7" style="enable-background:new 0 0 86.2 86.7;" xml:space="preserve">
<style type="text/css">
	.st0{fill:#FFFFFF;}
	.st1{fill:#B91F32;}
	.st2{fill:#25366F;}
	.st3{fill:#FFCB1E;}
</style>
<g>
	<g>
		<circle class="st0" cx="43.1" cy="43.6" r="42.9"/>
		<g>
			<path class="st1" d="M43.1,86.7C19.3,86.7,0,67.4,0,43.6S19.3,0.5,43.1,0.5s43.1,19.3,43.1,43.1S66.9,86.7,43.1,86.7z M43.1,5.7
				c-21,0-38,17-38,37.9s17,38,38,38s38-17,38-38C80.9,22.8,64,5.7,43.1,5.7z"/>
			<g>
				<path class="st2" d="M43.1,59.5c9.6-3.1,19.9-2.3,29.1,2.1c3.1-5.1,5-11.3,5-17.8C77.4,24.9,62.1,9.4,43.1,9.4
					S8.7,24.9,8.7,43.6c0,6.5,1.9,12.7,5,17.9C23.2,57,33.4,56.2,43.1,59.5z M20.4,34.5c1.4-0.5,2.9,0.5,3.6,2.1
					c0.3,0.9,0.2,2.1-0.2,2.8c2.3,2.9,5.2,6.4,6.5,6.4c1.4,0,3-6.4,4.3-11.4c-0.7-0.6-1.4-1.5-1.4-2.6c-0.2-2,0.8-3.6,2.4-3.6
					c1.6-0.1,2.9,1.4,3,3.1c0.1,1.3-0.5,2.3-1.3,2.9c1.6,5,4,11.4,5.7,11.4s4.1-6.4,5.7-11.4c-0.8-0.6-1.4-1.7-1.3-2.9
					c0.1-1.9,1.5-3.1,3-3.1c1.6,0.1,2.7,1.6,2.6,3.5c-0.1,1.2-0.6,2.1-1.5,2.7c1.2,5,2.8,11.4,4.4,11.4c1.4,0,4.2-3.1,6.4-6.2
					c-0.7-0.7-0.8-1.9-0.5-3c0.6-1.6,2.2-2.4,3.6-2.1c1.4,0.5,2,2.1,1.4,3.6c-0.3,0.9-1.2,1.6-2,2l-2.7,15.7
					c-6.4-1-12.9-0.6-19.2,1.4c-6.3-1.9-12.7-2.3-19.1-1.4L21,40.2c-0.9-0.2-1.7-0.9-2.2-2.1C18.5,36.6,19.1,35,20.4,34.5z"/>
				<path class="st2" d="M43.1,67.2c0,0-12.9-8.3-27.6-3C21.8,72.6,31.8,78,43.1,78s21.4-5.6,27.6-13.9
					C56.2,58.9,43.1,67.2,43.1,67.2z"/>
			</g>
			<g>
				<polygon class="st3" points="28.4,18.9 29.7,22.6 33.4,22.6 30.3,24.6 31.6,28.4 28.4,26 25.4,28.4 26.7,24.6 23.5,22.6 
					27.4,22.6 				"/>
				<polygon class="st3" points="43.1,15.3 44.2,19 48,19 45,21.2 46.1,24.9 43.1,22.6 40.1,24.9 41.3,21.2 38.1,19 42,19 				"/>
				<polygon class="st3" points="57.9,18.3 59,21.9 62.8,21.9 59.8,24 60.9,27.8 57.9,25.4 54.8,27.8 56.1,24 52.9,21.9 56.8,21.9 
									"/>
			</g>
		</g>
	</g>
</g>
</svg>
