<?xml version="1.0" encoding="utf-8"?>
<!-- Generator: Adobe Illustrator 19.2.1, SVG Export Plug-In . SVG Version: 6.00 Build 0)  -->
<svg version="1.1" id="Layer_1" xmlns="http://www.w3.org/2000/svg" xmlns:xlink="http://www.w3.org/1999/xlink" x="0px" y="0px"
	 viewBox="0 0 74.5 74.5" style="enable-background:new 0 0 74.5 74.5;" xml:space="preserve">
<style type="text/css">
	.st0{clip-path:url(#SVGID_2_);fill:#FFFFFF;}
	.st1{fill:#FFFFFF;}
	.st2{clip-path:url(#SVGID_4_);fill:#FFFFFF;}
</style>
<g>
	<defs>
		<rect id="SVGID_1_" width="74.5" height="74.5"/>
	</defs>
	<clipPath id="SVGID_2_">
		<use xlink:href="#SVGID_1_"  style="overflow:visible;"/>
	</clipPath>
	<path class="st0" d="M37.2,73.9C17,73.9,0.5,57.5,0.5,37.2C0.5,17,17,0.5,37.2,0.5S73.9,17,73.9,37.2
		C73.9,57.5,57.5,73.9,37.2,73.9 M37.2,0C16.7,0,0,16.7,0,37.2s16.7,37.2,37.2,37.2s37.2-16.7,37.2-37.2S57.8,0,37.2,0"/>
</g>
<polygon class="st1" points="34.6,21.2 37.2,19.2 39.9,21.2 38.8,18.1 41.5,16.2 38.2,16.3 37.2,13.2 36.3,16.3 33,16.2 35.7,18.1 
	"/>
<polygon class="st1" points="47.2,23.7 49.9,21.7 52.5,23.7 51.4,20.6 54.1,18.7 50.8,18.8 49.9,15.6 48.9,18.8 45.6,18.7 
	48.3,20.6 "/>
<polygon class="st1" points="22.2,24.2 24.8,22.3 27.4,24.2 26.4,21.1 29,19.3 25.8,19.3 24.8,16.2 23.9,19.3 20.6,19.3 23.3,21.1 
	"/>
<g>
	<defs>
		<rect id="SVGID_3_" width="74.5" height="74.5"/>
	</defs>
	<clipPath id="SVGID_4_">
		<use xlink:href="#SVGID_3_"  style="overflow:visible;"/>
	</clipPath>
	<path class="st2" d="M56.6,29.5c-1.2-0.4-2.5,0.4-3,1.7c-0.4,1-0.2,2,0.4,2.6C52,36.3,49.6,39,48.4,39c-1.3,0-2.8-5.4-3.7-9.7
		c0.7-0.5,1.2-1.3,1.3-2.3c0.1-1.5-0.9-2.8-2.3-2.9c-1.3-0.1-2.5,1.1-2.6,2.7c-0.1,1,0.4,2,1.1,2.5c-1.4,4.3-3.4,9.8-4.9,9.8
		c-1.4,0-3.5-5.5-4.8-9.8c0.7-0.5,1.1-1.4,1.1-2.5c-0.1-1.5-1.2-2.7-2.6-2.7c-1.3,0.1-2.3,1.4-2.3,2.9c0.1,1,0.5,1.8,1.2,2.3
		c-1,4.3-2.6,9.8-3.7,9.8c-1,0-3.5-2.9-5.5-5.4c0.4-0.6,0.6-1.5,0.2-2.4c-0.5-1.3-1.9-2.1-3-1.7c-1.2,0.4-1.7,1.7-1.1,3.1
		c0.3,0.9,1.1,1.5,1.9,1.7L21,47.6c5.4-0.8,10.9-0.5,16.2,1.2c5.4-1.6,11-2,16.4-1.1l2.4-13.4c0.7-0.3,1.3-0.9,1.6-1.7
		C58.2,31.2,57.7,29.8,56.6,29.5"/>
	<path class="st2" d="M37.3,50.7c-8.2-2.8-17.1-2-24.9,1.9C9.6,48.1,8,42.9,8,37.3C8,21.2,21.1,8.1,37.2,8.1s29.2,13.1,29.2,29.2
		c0,5.6-1.6,10.8-4.3,15.3C54.3,48.7,45.5,48,37.3,50.7 M37.2,66.5c-9.6,0-18.2-4.7-23.5-11.9c12.5-4.4,23.5,2.6,23.5,2.6
		s11.2-7,23.5-2.6C55.4,61.8,46.9,66.5,37.2,66.5 M37.2,5C19.4,5,5,19.4,5,37.2C5,55,19.4,69.5,37.2,69.5C55,69.5,69.5,55,69.5,37.2
		C69.5,19.4,55,5,37.2,5"/>
</g>
</svg>
