<?xml version="1.0" encoding="utf-8"?>
<!-- Generator: Adobe Illustrator 19.2.1, SVG Export Plug-In . SVG Version: 6.00 Build 0)  -->
<svg version="1.1" id="Layer_1" xmlns="http://www.w3.org/2000/svg" xmlns:xlink="http://www.w3.org/1999/xlink" x="0px" y="0px"
	 viewBox="0 0 302 86.7" style="enable-background:new 0 0 302 86.7;" xml:space="preserve">
<style type="text/css">
	.st0{fill:#323133;}
	.st1{fill:#FFFFFF;}
	.st2{fill:#B91F32;}
	.st3{fill:#25366F;}
	.st4{fill:#FFCB1E;}
</style>
<g>
	<g>
		<g>
			<g>
				<g>
					<path class="st0" d="M99.8,66.3c-1.2,0-2-0.8-2-1.9c0-1.2,0.8-2,2.1-2c1.2,0,2,0.8,2,2C102,65.3,101,66.3,99.8,66.3z
						 M99.8,62.6c-0.8,0-1.5,0.5-1.5,1.6c0,1.4,0.8,2,1.6,2c0.8,0,1.5-0.5,1.5-1.6C101.4,63.2,100.5,62.6,99.8,62.6z"/>
					<path class="st0" d="M105.7,63.2c-0.1-0.3,0-0.5-0.9-0.5h-0.6c0,0.1,0,0.3,0,0.7v0.7h0.3c0.6,0,0.7-0.1,0.7-0.3h0.1
						c0,0.1,0,0.3,0,0.5c0,0.1,0,0.3,0,0.3h-0.1c0-0.2-0.1-0.3-0.7-0.3h-0.3v0.9c0,0.7,0.1,0.8,0.6,0.8v0.1c-0.1,0-0.6,0-0.8,0
						c-0.3,0-0.6,0-0.8,0V66c0.5,0,0.5-0.1,0.5-0.8v-1.7c0-0.7-0.1-0.8-0.6-0.8v-0.1c0.3,0,1.2,0,1.7,0c0.3,0,0.7,0,0.9,0
						c0.1,0,0.1,0,0.1,0.1C105.7,62.7,105.7,63.1,105.7,63.2C105.8,63.2,105.7,63.2,105.7,63.2z"/>
				</g>
				<g>
					<path class="st0" d="M114,62.8c0,0.1,0,0.2,0,0.3h-0.1c0-0.2-0.2-0.5-0.8-0.5h-0.5v2.4c0,0.7,0,0.8,0.6,0.8v0.1
						c-0.1,0-0.6,0-0.8,0c-0.3,0-0.7,0-0.9,0V66c0.5,0,0.6-0.1,0.6-0.8v-2.4h-0.5c-0.6,0-0.8,0.1-0.8,0.5h-0.1c0-0.1,0-0.3,0-0.6
						c0-0.1,0-0.1,0-0.2h0.1c0,0.2,0,0.2,0.8,0.2h1.6c0.8,0,0.8,0,0.8-0.2h0.1C114,62.5,114,62.6,114,62.8z"/>
					<path class="st0" d="M118.5,66.2c-0.3,0-0.6,0-0.8,0v-0.1c0.5,0,0.5-0.1,0.5-0.8v-0.8h-2.1v0.7c0,0.7,0.1,0.8,0.5,0.8v0.1
						c-0.1,0-0.5,0-0.7,0c-0.3,0-0.7,0-0.9,0V66c0.5,0,0.5,0,0.5-0.8v-1.7c0-0.7,0-0.8-0.6-0.8v-0.1c0.2,0,0.6,0,0.9,0
						c0.2,0,0.6,0,0.7,0v0.1c-0.5,0-0.5,0.2-0.5,0.8v0.7h2.1v-0.7c0-0.7-0.1-0.8-0.5-0.8v-0.1c0.2,0,0.6,0,0.8,0c0.2,0,0.7,0,0.8,0
						v0.1c-0.6,0-0.6,0.2-0.6,0.8v1.7c0,0.7,0,0.8,0.6,0.8v0.1C119.2,66.2,118.7,66.2,118.5,66.2z"/>
					<path class="st0" d="M123.2,66.2c0,0.1,0,0.1-0.1,0.1c-0.2,0-0.6,0-0.9,0c-0.6,0-1.3,0-1.7,0v-0.1c0.6-0.1,0.6-0.1,0.6-0.8
						v-1.7c0-0.7,0-0.8-0.6-0.8v-0.1c0.3,0,1.2,0,1.6,0c0.3,0,0.8,0,1.2,0c0,0.1,0,0.2,0,0.3s0,0.2,0,0.2h-0.1
						c0-0.2-0.1-0.3-0.8-0.3h-0.5c0,0.1,0,0.3,0,0.7v0.7h0.3c0.6,0,0.7,0,0.7-0.2h0.1c0,0.1,0,0.3,0,0.5c0,0.1,0,0.2,0,0.3h-0.1
						c0-0.3-0.1-0.3-0.7-0.3h-0.3v0.6c0,0.7,0.1,0.8,0.3,0.8h0.2c0.8,0,0.8-0.1,0.9-0.5h0.1C123.3,65.6,123.2,66.1,123.2,66.2z"/>
				</g>
			</g>
			<g>
				<path class="st0" d="M127.7,66.1l0.3-0.5c0.3,0.3,0.8,0.7,1.6,0.7c0.9,0,1.3-0.5,1.3-0.8c0-1.4-3-0.6-3-2.4
					c0-0.8,0.7-1.5,1.7-1.5c0.7,0,1.4,0.2,1.9,0.7l-0.3,0.5c-0.3-0.3-0.9-0.6-1.5-0.6s-1.2,0.3-1.2,0.8c0,1.2,3,0.5,3,2.4
					c0,0.7-0.5,1.5-2,1.5C128.9,66.9,128.2,66.6,127.7,66.1z"/>
				<path class="st0" d="M134.4,64.2c0-1.5,0.9-2.7,2.6-2.7c1.5,0,2.6,1.2,2.6,2.7s-0.9,2.7-2.6,2.7
					C135.3,66.9,134.4,65.6,134.4,64.2z M138.8,64.2c0-1.3-0.7-2.1-1.9-2.1s-1.9,0.8-1.9,2.1s0.7,2.1,1.9,2.1S138.8,65.4,138.8,64.2
					z"/>
				<path class="st0" d="M142.5,64.8v-3.1h0.6v3.1c0,0.9,0.5,1.6,1.5,1.6s1.5-0.6,1.5-1.6v-3.1h0.6v3.1c0,1.3-0.7,2.1-2.1,2.1
					S142.5,66.1,142.5,64.8z"/>
				<path class="st0" d="M151.1,66.8v-4.5h-1.6v-0.6h4v0.6h-1.6v4.5H151.1z"/>
				<path class="st0" d="M159.9,66.8v-2.3h-3v2.3h-0.7v-5.1h0.6v2.2h3v-2.2h0.6v5.1H159.9z"/>
				<path class="st0" d="M163.7,66.8v-5.1h3.5v0.6h-2.7V64h2.7v0.6h-2.7v1.9h2.7V67h-3.5V66.8z"/>
				<path class="st0" d="M173.1,66.8l-1.4-2.1h-0.9v2.1h-0.6v-5.1h2.1c0.9,0,1.6,0.6,1.6,1.6c0,0.9-0.6,1.5-1.4,1.5l1.4,2.1h-0.8
					V66.8z M173.2,63.2c0-0.6-0.3-0.9-0.9-0.9h-1.4v2h1.4C172.7,64.2,173.2,63.8,173.2,63.2z"/>
				<path class="st0" d="M180.4,66.8l-3-4.2v4.2h-0.6v-5.1h0.6l2.9,4.1v-4.1h0.6v5.1H180.4z"/>
				<path class="st0" d="M188.2,66.8v-5.1h2.3c0.8,0,1.5,0.5,1.5,1.4c0,0.6-0.5,1.2-0.8,1.3c0.5,0.1,0.9,0.6,0.9,1.3
					c0,0.8-0.5,1.4-1.5,1.4C190.7,66.8,188.2,66.8,188.2,66.8z M191.2,63c0-0.5-0.3-0.8-0.8-0.8h-1.6v1.7h1.6
					C190.9,63.9,191.2,63.4,191.2,63z M191.5,65.3c0-0.5-0.3-0.8-0.9-0.8h-1.7v1.9h1.6C191,66.2,191.5,66,191.5,65.3z"/>
				<path class="st0" d="M198.7,66.8l-0.5-1.2h-2.6l-0.5,1.2h-0.7l2.1-5.1h0.8l2.1,5.1H198.7z M196.9,62.3l-1.2,2.8h2.2L196.9,62.3z
					"/>
				<path class="st0" d="M202.1,66.8v-5.1h2.1c0.9,0,1.6,0.7,1.6,1.6c0,0.8-0.6,1.6-1.6,1.6h-1.4V67h-0.6v-0.2H202.1z M205.1,63.2
					c0-0.6-0.3-0.9-0.9-0.9h-1.4v2h1.4C204.8,64.2,205.1,63.8,205.1,63.2z"/>
				<path class="st0" d="M209.9,66.8v-4.5h-1.6v-0.6h4v0.6h-1.6v4.5H209.9z"/>
				<path class="st0" d="M214.9,66.8v-5.1h0.6v5.1H214.9z"/>
				<path class="st0" d="M218.5,66.1l0.3-0.5c0.3,0.3,0.8,0.7,1.6,0.7c0.9,0,1.3-0.5,1.3-0.8c0-1.4-3-0.6-3-2.4
					c0-0.8,0.7-1.5,1.7-1.5c0.7,0,1.4,0.2,1.9,0.7l-0.3,0.5c-0.3-0.3-0.9-0.6-1.5-0.6s-1.2,0.3-1.2,0.8c0,1.2,3,0.5,3,2.4
					c0,0.7-0.5,1.5-2,1.5C219.7,66.9,218.9,66.6,218.5,66.1z"/>
				<path class="st0" d="M226.5,66.8v-4.5h-1.6v-0.6h4v0.6h-1.6v4.5H226.5z"/>
				<path class="st0" d="M235.4,64.2c0-1.6,1.3-2.7,2.7-2.7c0.8,0,1.6,0.5,2,0.9l-0.5,0.2c-0.2-0.5-0.8-0.7-1.5-0.7
					c-1.2,0-2,0.8-2,2.1c0,1.3,0.8,2.1,2,2.1c0.6,0,1.2-0.3,1.5-0.7l0.5,0.2c-0.5,0.6-1.2,0.9-2,0.9
					C236.4,66.9,235.4,65.8,235.4,64.2z"/>
				<path class="st0" d="M242.5,64.2c0-1.5,0.9-2.7,2.6-2.7c1.5,0,2.6,1.2,2.6,2.7s-0.9,2.7-2.6,2.7
					C243.7,66.9,242.5,65.6,242.5,64.2z M247.1,64.2c0-1.3-0.7-2.1-1.9-2.1s-1.9,0.8-1.9,2.1s0.7,2.1,1.9,2.1S247.1,65.4,247.1,64.2
					z"/>
				<path class="st0" d="M254.4,66.8l-3-4.2v4.2h-0.6v-5.1h0.6l2.9,4.1v-4.1h0.6v5.1H254.4z"/>
				<path class="st0" d="M259.6,66.8l-2.1-5.1h0.7l1.7,4.4l1.7-4.4h0.7l-2.1,5.1H259.6z"/>
				<path class="st0" d="M265.2,66.8v-5.1h3.5v0.6H266V64h2.7v0.6H266v1.9h2.7V67h-3.5V66.8z"/>
				<path class="st0" d="M275.3,66.8l-3-4.2v4.2h-0.6v-5.1h0.6l2.9,4.1v-4.1h0.6v5.1H275.3z"/>
				<path class="st0" d="M280.4,66.8v-4.5h-1.6v-0.6h4v0.6h-1.6v4.5H280.4z"/>
				<path class="st0" d="M285.4,66.8v-5.1h0.6v5.1H285.4z"/>
				<path class="st0" d="M289,64.2c0-1.5,0.9-2.7,2.6-2.7c1.5,0,2.6,1.2,2.6,2.7s-0.9,2.7-2.6,2.7C290.1,66.9,289,65.6,289,64.2z
					 M293.6,64.2c0-1.3-0.7-2.1-1.9-2.1s-1.9,0.8-1.9,2.1s0.7,2.1,1.9,2.1C292.6,66.3,293.6,65.4,293.6,64.2z"/>
				<path class="st0" d="M300.8,66.8l-3-4.2v4.2h-0.6v-5.1h0.6l2.9,4.1v-4.1h0.6v5.1H300.8z"/>
			</g>
		</g>
		<g>
			<g>
				<path class="st0" d="M108.1,54.1c-0.1,0.3-0.2,0.3-0.5,0.3c-0.8,0-2-0.1-3.6-0.1c-2.2,0-4.5,0-6.3,0.1c-0.1,0-0.1-0.2,0-0.2
					c2.2-0.2,2.2-0.1,2.2-3.6V44c0-3.5-0.1-3.5-2.1-3.7c-0.1,0-0.1-0.2,0-0.2c0.9,0.1,2,0.1,3.1,0.1c0.9,0,2-0.1,2.7-0.1
					c0.1,0,0.1,0.2,0,0.2c-2.1,0.1-2.1,0.3-2.1,3.7v6.6c0,2.8,0.2,3,1.4,3h1.3c3.5,0,3.6-0.2,3.8-1.5h0.2
					C108.4,52.9,108.3,53.6,108.1,54.1z"/>
				<path class="st0" d="M115.6,54.5c-0.5-0.1-1.6-0.1-2.3-0.1c-0.9,0-2,0-2.7,0.1c-0.1,0,0-0.2,0-0.2c1.5-0.1,1.7-0.5,1.7-2.6v-5
					c0-2.2-0.2-2.4-1.7-2.6c0,0-0.1-0.2,0-0.2c0.7,0.1,1.7,0.1,2.7,0.1c0.6,0,1.9-0.1,2.3-0.1c0.1,0,0,0.2,0,0.2
					c-1.6,0.1-1.7,0.6-1.7,2.6v5c0,2.1,0.1,2.4,1.7,2.6C115.6,54.2,115.8,54.5,115.6,54.5z"/>
				<path class="st0" d="M123.3,54.5c-0.5,0-1.6-0.1-2.1-0.1c-0.9,0-2,0-2.7,0.1c-0.1,0-0.1-0.2,0-0.2c1.5-0.1,1.7-0.5,1.7-2.6v-5
					c0-2.2-0.2-2.4-1.7-2.6c0,0-0.1-0.2,0-0.2C119.1,44,120,44,121,44c0.3,0,1.5-0.1,2-0.1c1.9,0,3.5,0.8,3.5,2.4
					c0,1.2-1.2,2.2-2.6,2.4c2.1-0.1,3.6,1.2,3.6,2.6C127.4,53.1,125.6,54.5,123.3,54.5z M122.4,48.9v-0.3c2.1,0,2.6-0.7,2.6-2
					c0-1.7-0.8-2.3-2.3-2.3c-0.2,0-0.2,0-0.5,0c-0.1,0.5-0.1,1.2-0.1,2.3v5.1c0,1.9,0,2.2,1.3,2.2c1.9,0,2.7-0.7,2.7-2.3
					C125.7,49.9,124.7,48.6,122.4,48.9z"/>
				<path class="st0" d="M137.5,54.1c-0.1,0.2-0.1,0.3-0.3,0.3c-0.6,0-1.6-0.1-2.8-0.1c-1.6,0-3.6,0-4.8,0.1c-0.1,0,0-0.2,0-0.2
					c1.7-0.2,1.9-0.5,1.9-2.6v-5c0-2.2-0.1-2.4-1.9-2.6c0,0-0.1-0.2,0-0.2c1.3,0.1,3,0.1,4.8,0.1c1.3,0,2.3-0.1,3.1-0.1
					c-0.1,0.2-0.1,0.7-0.1,1.2c0,0.1,0,0.6,0,0.8h-0.2c-0.1-0.7-0.3-1.2-2.6-1.2h-1.5c-0.1,0.3-0.1,0.9-0.1,2.1v2.1h1.2
					c1.9,0,2-0.1,2.2-0.8c0,0,0.2-0.1,0.2,0c-0.1,0.2-0.1,0.9-0.1,1.4c0,0.2,0,0.8,0,0.9h-0.2c-0.1-0.8-0.2-0.9-2.1-0.9H133v2.2
					c0,2.2,0.1,2.4,0.9,2.4h0.8c2.6,0,2.6-0.3,2.8-1.5h0.2C137.7,52.7,137.6,53.8,137.5,54.1z"/>
				<path class="st0" d="M145.1,49.6c-0.3,0.1-0.8,0.1-1.3,0.1c-0.3,0-0.5,0-0.7,0v2c0,2.1,0.1,2.4,1.7,2.6c0,0,0.1,0.2,0,0.2
					c-0.5-0.1-1.6-0.1-2.3-0.1c-0.9,0-2,0-2.7,0.1c-0.1,0,0-0.2,0-0.2c1.5-0.1,1.7-0.5,1.7-2.6v-5c0-2-0.3-2.4-1.2-2.4
					c-0.1,0-0.3,0-0.6,0.1c0,0-0.1-0.2,0-0.2c0.7-0.2,2.6-0.2,4.3-0.2c2.8,0,4.4,0.8,4.4,2.7c0,1.2-0.7,2.2-2.1,2.7
					c0.8,2.3,2.9,5.5,4.9,5.5c0,0,0.1,0.2,0,0.2C147.8,54.7,145.8,52.1,145.1,49.6z M143.9,44.1c-0.2,0-0.3,0-0.6,0
					c-0.1,0.3-0.1,0.9-0.1,2.2v2.8c0.2,0,0.3,0,0.7,0c2.2,0,3-0.8,3-2.4C146.9,44.8,145.8,44.1,143.9,44.1z"/>
				<path class="st0" d="M161.4,44.8c0,0.2,0,0.8,0,1.2h-0.2c-0.1-0.7-0.7-1.4-2.4-1.4h-1.5v7.1c0,2.1,0.1,2.4,1.7,2.6
					c0,0,0.1,0.2,0,0.2c-0.5-0.1-1.6-0.1-2.3-0.1c-0.9,0-2,0-2.7,0.1c-0.1,0-0.1-0.2,0-0.2c1.5-0.1,1.7-0.5,1.7-2.6v-7.1h-1.6
					c-1.7,0-2.3,0.5-2.6,1.4h-0.2c0.1-0.3,0.1-1.3,0.1-1.7c0-0.1,0-0.5-0.1-0.8h0.2c0.1,0.6,0.1,0.6,2.6,0.6h4.7
					c2.4,0,2.4,0,2.6-0.6h0.2C161.5,43.5,161.4,44.1,161.4,44.8z"/>
				<path class="st0" d="M174.3,43.6c-0.7,0.1-0.8,0.1-1.9,0.1c-0.7,0-1.4,0-1.9-0.1c-0.1,0,0,0.1,0,0.1c0.7,0,1.2,0.1,1.2,0.3
					s-0.1,0.5-0.6,1.3l-2.4,3.6l-2.4-3.6c-0.3-0.6-0.6-1.2-0.6-1.3c0-0.2,0.3-0.3,1.3-0.3c0.1,0,0.1-0.1,0-0.1
					c-0.6,0.1-1.9,0.1-2.8,0.1c-0.6,0-1.6,0-2.2-0.1c-0.1,0,0,0.1,0,0.1c1.4,0.1,1.9,0.5,2.6,1.6l2.8,4.2v1.9c0,2.2-0.2,2.4-1.7,2.6
					c0,0-0.1,0.2,0,0.2c0.6-0.1,1.7-0.1,2.7-0.1c0.7,0,1.9,0,2.3,0.1c0.1,0,0.1-0.2,0-0.2c-1.6-0.1-1.7-0.6-1.7-2.6v-2.2l0,0l2.7-4
					c0.8-1.3,1.5-1.6,2.4-1.6C174.5,43.7,174.5,43.6,174.3,43.6z"/>
			</g>
			<g>
				<path class="st0" d="M192.7,53.6c-0.7,0.6-2.1,1.3-4.8,1.3c-4.9,0-8-3.5-8-7.2s3.5-7.8,8.2-7.8c2,0,4.2,0.8,4.5,1.3
					c0.1,0.1,0.3,1.7,0.3,3c0,0.1-0.2,0.1-0.2,0c-0.3-1.7-2-3.7-5.2-3.7c-3.3,0-5.8,2.3-5.8,6.5c0,4.9,3.1,7.5,6.4,7.5
					c2.3,0,4.5-1.5,4.7-3.7h0.2C193.1,51.9,193,53.5,192.7,53.6z"/>
				<path class="st0" d="M201,54.7c-3.4,0-5.8-2.6-5.8-5.5s2.6-5.8,6.1-5.8c3.4,0,5.8,2.6,5.8,5.6C207.2,51.9,204.6,54.7,201,54.7z
					 M201,44c-2.3,0-4.1,1.5-4.1,4.5c0,3.7,2.3,5.7,4.5,5.7c2.3,0,4.1-1.5,4.1-4.5C205.6,45.8,203.2,44,201,44z"/>
				<path class="st0" d="M221.2,54.3c-0.9,0-1.9,0-2.6,0.1c-0.1,0-0.1-0.2,0-0.2c1.4-0.1,1.6-0.5,1.5-2.6l-0.1-6.2l-3.8,9.1
					c0,0.1-0.1,0.1-0.2,0l-4.2-8.9l-0.1,6.1c0,1.9,0.1,2.4,1.6,2.6c0,0,0.1,0.2,0,0.2c-0.5-0.1-1.2-0.1-1.9-0.1
					c-0.9,0-1.6,0-2.3,0.1c-0.1,0,0-0.2,0-0.2c1.5-0.1,1.7-0.6,1.7-2.6l0.1-5.9c0-0.8-0.7-1.7-2-1.9c0,0-0.1-0.2,0-0.2
					c0.8,0.1,2,0.1,3.5,0.1l4,8.4l2.2-5.5c0.5-1.2,0.8-2.2,1.2-3c1.2,0.1,2.7,0,3.5-0.1c0.1,0,0,0.2,0,0.2c-1.7,0.1-1.9,0.6-1.9,2.6
					l0.1,5c0,2.1,0.1,2.4,2,2.6c0,0,0.1,0.2,0,0.2C223.2,54.3,222,54.3,221.2,54.3z"/>
				<path class="st0" d="M237.5,54.3c-0.9,0-1.9,0-2.6,0.1c-0.1,0-0.1-0.2,0-0.2c1.4-0.1,1.6-0.5,1.5-2.6l-0.1-6.2l-3.8,9.1
					c0,0.1-0.1,0.1-0.2,0l-4.2-8.9l-0.1,6.1c0,1.9,0.1,2.4,1.6,2.6c0,0,0.1,0.2,0,0.2c-0.5-0.1-1.2-0.1-1.9-0.1
					c-0.9,0-1.6,0-2.3,0.1c-0.1,0,0-0.2,0-0.2c1.5-0.1,1.7-0.6,1.7-2.6l0.1-5.9c0-0.8-0.7-1.7-2-1.9c0,0-0.1-0.2,0-0.2
					c0.8,0.1,2,0.1,3.5,0.1l4,8.4l2.2-5.5c0.5-1.2,0.8-2.2,1.2-3c1.2,0.1,2.7,0,3.5-0.1c0.1,0,0,0.2,0,0.2c-1.7,0.1-1.9,0.6-1.9,2.6
					l0.1,5c0,2.1,0.1,2.4,2,2.6c0,0,0.1,0.2,0,0.2C239.5,54.3,238.1,54.3,237.5,54.3z"/>
				<path class="st0" d="M246.9,54.5c-0.5-0.1-1.6-0.1-2.3-0.1c-0.9,0-2,0-2.7,0.1c-0.1,0,0-0.2,0-0.2c1.5-0.1,1.7-0.5,1.7-2.6v-5
					c0-2.2-0.2-2.4-1.7-2.6c0,0-0.1-0.2,0-0.2c0.7,0.1,1.7,0.1,2.7,0.1c0.6,0,1.9-0.1,2.3-0.1c0.1,0,0,0.2,0,0.2
					c-1.6,0.1-1.7,0.6-1.7,2.6v5c0,2.1,0.1,2.4,1.7,2.6C247.1,54.2,247.1,54.5,246.9,54.5z"/>
				<path class="st0" d="M252.9,54.7c-1.2,0-2.1-0.5-2.9-1.3c-0.1-0.1,0-1.4,0.1-2.4c0-0.1,0.2,0,0.2,0c0.1,1.7,0.9,3,2.7,3
					c1.3,0,2-0.7,2-1.9c0-2.8-4.8-2.8-4.8-5.8c0-1.5,1.4-3,3.1-3c0.9,0,1.5,0.2,2.1,0.6c0.1,0.1,0.2,0.9,0.2,2.1h-0.2
					c-0.2-1.3-0.9-2.1-2.2-2.1c-1.2,0-1.9,0.5-1.9,1.6c0,2.7,4.7,2.6,4.7,5.8C256.1,53.2,254.9,54.7,252.9,54.7z"/>
				<path class="st0" d="M262.1,54.7c-1.2,0-2.1-0.5-2.9-1.3c-0.1-0.1,0-1.4,0.1-2.4c0-0.1,0.2,0,0.2,0c0.1,1.7,0.9,3,2.7,3
					c1.3,0,2-0.7,2-1.9c0-2.8-4.8-2.8-4.8-5.8c0-1.5,1.4-3,3.1-3c0.9,0,1.5,0.2,2.1,0.6c0.1,0.1,0.2,0.9,0.2,2.1h-0.2
					c-0.2-1.3-0.9-2.1-2.2-2.1c-1.2,0-1.9,0.5-1.9,1.6c0,2.7,4.7,2.6,4.7,5.8C265.5,53.2,264.2,54.7,262.1,54.7z"/>
				<path class="st0" d="M272.9,54.5c-0.5-0.1-1.6-0.1-2.3-0.1c-0.9,0-2,0-2.7,0.1c-0.1,0,0-0.2,0-0.2c1.5-0.1,1.7-0.5,1.7-2.6v-5
					c0-2.2-0.2-2.4-1.7-2.6c0,0-0.1-0.2,0-0.2c0.7,0.1,1.7,0.1,2.7,0.1c0.6,0,1.9-0.1,2.3-0.1c0.1,0,0,0.2,0,0.2
					c-1.6,0.1-1.7,0.6-1.7,2.6v5c0,2.1,0.1,2.4,1.7,2.6C273,54.2,273,54.5,272.9,54.5z"/>
				<path class="st0" d="M280.8,54.7c-3.4,0-5.8-2.6-5.8-5.5s2.6-5.8,6.1-5.8c3.4,0,5.8,2.6,5.8,5.6C287,51.9,284.3,54.7,280.8,54.7
					z M280.8,44c-2.3,0-4.1,1.5-4.1,4.5c0,3.7,2.3,5.7,4.5,5.7c2.3,0,4.1-1.5,4.1-4.5C285.4,45.8,283.1,44,280.8,44z"/>
				<path class="st0" d="M300.1,46.6v5c0,0.8,0,2.3,0.1,3H300l-8.3-8.6v5.6c0,1.9,0.1,2.4,1.7,2.6c0,0,0.1,0.2,0,0.2
					c-0.5-0.1-1.2-0.1-1.7-0.1c-0.9,0-1.6,0-2.3,0.1c-0.1,0,0-0.2,0-0.2c1.5-0.1,1.7-0.6,1.7-2.6v-5.8c0-0.7-1.4-1.9-2.2-2
					c0,0-0.1-0.2,0-0.2c0.7,0.1,2,0.1,2.8,0.1l7.7,8.2v-5.4c0-2-0.2-2.4-1.7-2.6c-0.1,0-0.1-0.2,0-0.2c0.6,0.1,1.3,0.1,2.2,0.1
					c0.7,0,1.5-0.1,2-0.1c0.1,0,0,0.2,0,0.2C300.2,44,300.1,44.8,300.1,46.6z"/>
			</g>
		</g>
		<g>
			<g>
				<path class="st0" d="M129.4,36.3c-0.1,0.3-0.2,0.3-0.5,0.3c-0.8,0-2.2-0.1-3.8-0.1c-2.2,0-4.4,0-6.1,0.1c-0.1,0-0.1-0.2,0-0.2
					c2.2-0.2,2.3-0.1,2.3-3.6v-6.6c0-3.5,0-3.4-2.3-3.7c0,0-0.1-0.2,0-0.2c1.6,0.1,3.7,0.1,5.9,0.1c1.6,0,3-0.1,4.3-0.1
					c-0.1,0.3-0.1,0.7-0.1,1.3c0,0.2,0,0.6,0,0.8c0,0.1-0.2,0-0.2,0c-0.1-0.9-0.6-1.4-3.6-1.4h-2.1c-0.1,0.6-0.1,1.6-0.1,3v2.9h2.3
					c2.4,0,2.2-0.2,2.4-0.8h0.2c-0.1,0.3-0.1,0.8-0.1,1.4c0,0.2,0,0.7,0,0.8c0,0.1-0.2,0-0.2,0c-0.1-0.7-0.2-0.9-2.3-0.9h-2.3v3.4
					c0,2.9,0.3,3.1,1.5,3.1h1.2c3.5,0,3.6-0.3,4-1.9h0.2C129.7,34.8,129.5,35.8,129.4,36.3z"/>
				<path class="st0" d="M141.5,26.8c0,0.2,0,0.8,0,1.2h-0.2c-0.1-0.7-0.7-1.4-2.4-1.4h-1.5v7.1c0,2.1,0.1,2.4,1.7,2.6
					c0,0,0.1,0.2,0,0.2c-0.5-0.1-1.6-0.1-2.3-0.1c-0.9,0-2,0-2.7,0.1c-0.1,0-0.1-0.2,0-0.2c1.5-0.1,1.7-0.5,1.7-2.6v-7.1h-1.6
					c-1.7,0-2.3,0.5-2.6,1.4h-0.2c0.1-0.3,0.1-1.3,0.1-1.7c0-0.1,0-0.5-0.1-0.8h0.2c0.1,0.6,0.1,0.6,2.6,0.6h4.7
					c2.4,0,2.4,0,2.6-0.6h0.2C141.5,25.7,141.5,26.3,141.5,26.8z"/>
				<path class="st0" d="M153.5,36.5c-0.9,0-1.9,0-2.6,0.1c-0.1,0,0-0.2,0-0.2c1.4-0.1,1.6-0.5,1.6-2.6v-2.3h-5.9v2.3
					c0,2,0.2,2.4,1.6,2.6c0,0,0.1,0.2,0,0.2c-0.5-0.1-1.5-0.1-2.2-0.1c-0.9,0-2.1,0-2.8,0.1c-0.1,0,0-0.2,0-0.2
					c1.7-0.2,1.9-0.5,1.9-2.6v-5c0-2.2-0.1-2.4-1.9-2.6c0,0-0.1-0.2,0-0.2c0.7,0.1,1.9,0.1,2.8,0.1c0.7,0,1.7-0.1,2.2-0.1
					c0.1,0,0,0.2,0,0.2c-1.4,0.1-1.6,0.6-1.6,2.6V31h5.9v-2.2c0-2.2-0.2-2.4-1.6-2.6c0,0-0.1-0.2,0-0.2c0.7,0.1,1.6,0.1,2.6,0.1
					c0.7,0,2-0.1,2.4-0.1c0.1,0,0.1,0.2,0,0.2c-1.7,0.1-1.9,0.6-1.9,2.6v5c0,2.1,0.1,2.4,1.9,2.6c0.1,0,0.1,0.2,0,0.2
					C155.5,36.6,154.1,36.5,153.5,36.5z"/>
				<path class="st0" d="M163.5,36.6c-0.5-0.1-1.6-0.1-2.3-0.1c-0.9,0-2,0-2.7,0.1c-0.1,0,0-0.2,0-0.2c1.5-0.1,1.7-0.5,1.7-2.6v-5
					c0-2.2-0.2-2.4-1.7-2.6c0,0-0.1-0.2,0-0.2c0.7,0.1,1.7,0.1,2.7,0.1c0.6,0,1.9-0.1,2.3-0.1c0.1,0,0,0.2,0,0.2
					c-1.6,0.1-1.7,0.6-1.7,2.6v5c0,2.1,0.1,2.4,1.7,2.6C163.6,36.4,163.6,36.6,163.5,36.6z"/>
				<path class="st0" d="M175.3,36c-0.6,0.5-1.6,0.8-3.6,0.8c-3.7,0-6.2-2.6-6.2-5.5s2.6-5.9,6.2-5.9c1.5,0,3,0.6,3.5,0.8
					c0.1,0.1,0.2,1.6,0.3,2.6c0,0.1-0.2,0.1-0.2,0c-0.2-1.4-1.5-2.9-4-2.9c-2.4,0-4.2,1.7-4.2,4.7c0,3.7,2.2,5.6,4.7,5.6
					c1.7,0,3.5-1.3,3.6-2.9h0.2C175.5,34.4,175.4,35.9,175.3,36z"/>
				<path class="st0" d="M181.6,36.9c-1.2,0-2.1-0.5-2.9-1.3c-0.1-0.1,0-1.4,0.1-2.4c0-0.1,0.2,0,0.2,0c0.1,1.7,0.9,3,2.7,3
					c1.3,0,2-0.7,2-1.9c0-2.8-4.8-2.8-4.8-5.8c0-1.5,1.4-3,3.1-3c0.9,0,1.5,0.2,2.1,0.6c0.1,0.1,0.2,0.9,0.2,2.1h-0.2
					c-0.2-1.3-0.9-2.1-2.2-2.1c-1.2,0-1.9,0.5-1.9,1.6c0,2.7,4.7,2.6,4.7,5.8C184.8,35.2,183.5,36.9,181.6,36.9z"/>
				<path class="st0" d="M199.7,34.6c-1.3,0-1.9-0.7-2.6-1.7c-0.8,0.9-1.7,1.7-3,1.7c-0.9,0-2.8-0.7-2.8-2.6c0-1.3,0.8-2.3,2.4-2.9
					c-0.8-0.7-1.2-1.5-1.2-2c0-1.2,0.7-2.1,2.2-2.1c1.2,0,2.1,0.7,2.1,1.7c0,0.7-0.6,1.5-1.7,2c1.3,0.7,2,1.9,2.7,2.9
					c0.6-0.8,1.2-1.9,1.2-2.4c0-0.2-0.3-0.5-1.3-0.5c0,0-0.1-0.2,0-0.2c0.6,0.1,1.3,0.1,2.1,0.1c0.6,0,1.5,0,1.9-0.1
					c0.1,0,0,0.2,0,0.2c-1.2,0-1.7,0.2-2.8,2l-0.7,1.3c0.7,1.2,1.5,2.1,2.3,2.1c0.5,0,0.8-0.1,1.4-0.3l0.1,0.1
					C201.3,34.2,200.4,34.6,199.7,34.6z M194,29.4c-0.9,0.3-1.6,1.3-1.6,2.2c0,1.4,0.9,2.3,2.4,2.3c0.9,0,1.6-0.3,2.2-1.2
					C196.2,31.6,195.4,30.2,194,29.4z M194.6,25.3c-0.7,0-1.2,0.5-1.2,1.3c0,0.5,0.3,1.2,1.4,2c0.8-0.5,0.9-0.9,0.9-1.7
					C195.9,26,195.4,25.3,194.6,25.3z"/>
				<g>
					<path class="st0" d="M220.4,37c-5,0-7.5-3.5-8.5-7c-0.5,0.1-1.3,0.1-1.7,0.1c-0.5,0-0.6,0-0.9,0v2.7c0,3.4,0,3.5,2.1,3.6
						c0,0,0.1,0.2,0,0.2c-0.6-0.1-1.7-0.1-2.7-0.1c-1.3,0-2.2,0-3.1,0.1c-0.1,0-0.1-0.2,0-0.2c2-0.2,2.1-0.1,2.1-3.6V26
						c0-2.6-0.1-3.4-1.4-3.4c-0.2,0-0.5,0-0.8,0.1c-0.1,0-0.1-0.2,0-0.2c0.8-0.2,3-0.3,5.5-0.3c3,0,5.7,0.9,5.7,3.5c0,1.3-0.7,3-3,4
						c1.2,3.1,4.5,7.1,7.1,7.1C220.5,36.7,220.5,37,220.4,37z M210.3,22.8c-0.3,0-0.6,0-0.9,0c-0.1,0.5-0.2,1.5-0.2,3.1v3.8
						c0.3,0,0.5,0,0.8,0c3.4,0,4.4-1.3,4.4-3.1C214.5,23.5,212.6,22.8,210.3,22.8z"/>
					<path class="st0" d="M227.9,36.3c-0.1,0.2-0.1,0.3-0.3,0.3c-0.6,0-1.6-0.1-2.8-0.1c-1.6,0-3.6,0-4.8,0.1c-0.1,0,0-0.2,0-0.2
						c1.7-0.2,1.9-0.5,1.9-2.6v-5c0-2.2-0.1-2.4-1.9-2.6c0,0-0.1-0.2,0-0.2c1.3,0.1,3,0.1,4.8,0.1c1.3,0,2.3-0.1,3.1-0.1
						c-0.1,0.2-0.1,0.7-0.1,1.2c0,0.1,0,0.6,0,0.8h-0.2c-0.1-0.7-0.3-1.2-2.6-1.2h-1.5c-0.1,0.3-0.1,0.9-0.1,2.1v1.9h1.2
						c1.9,0,2-0.1,2.2-0.8c0,0,0.2-0.1,0.2,0c-0.1,0.2-0.1,0.9-0.1,1.4c0,0.2,0,0.8,0,0.9h-0.2c-0.1-0.8-0.2-0.9-2.1-0.9h-1.2v2.2
						c0,2.2,0.1,2.4,0.9,2.4h0.8c2.6,0,2.6-0.3,2.8-1.5h0.2C228.3,34.9,228.1,36,227.9,36.3z"/>
					<path class="st0" d="M238.4,36.3c-0.1,0.2-0.1,0.3-0.3,0.3c-0.6,0-1.5-0.1-2.7-0.1c-1.6,0-3.8,0-4.9,0.1c-0.1,0,0-0.2,0-0.2
						c1.7-0.2,1.9-0.5,1.9-2.6v-5c0-2.2-0.2-2.4-1.7-2.6c0,0-0.1-0.2,0-0.2c0.6,0.1,1.7,0.1,2.7,0.1c0.7,0,1.9-0.1,2.3-0.1
						c0.1,0,0,0.2,0,0.2c-1.6,0.1-1.7,0.6-1.7,2.6v4.9c0,1.7,0.1,2.3,0.9,2.3h0.7c2.6,0,2.7-0.5,2.9-1.5h0.2
						C238.8,34.9,238.5,36,238.4,36.3z"/>
					<path class="st0" d="M245.7,36.6c-0.5-0.1-1.6-0.1-2.3-0.1c-0.9,0-2,0-2.7,0.1c-0.1,0,0-0.2,0-0.2c1.5-0.1,1.7-0.5,1.7-2.6v-5
						c0-2.2-0.2-2.4-1.7-2.6c0,0-0.1-0.2,0-0.2c0.7,0.1,1.7,0.1,2.7,0.1c0.6,0,1.9-0.1,2.3-0.1c0.1,0,0,0.2,0,0.2
						c-1.6,0.1-1.7,0.6-1.7,2.6v5c0,2.1,0.1,2.4,1.7,2.6C245.7,36.4,245.8,36.6,245.7,36.6z"/>
					<path class="st0" d="M257.7,34.5c0,0.5,0,0.8,0.2,1.2c-1.4,0.7-2.6,1.3-4.2,1.3c-3.7,0-6.1-2.6-6.1-5.5s2.6-5.9,6.3-5.9
						c1.5,0,3.1,0.7,3.5,0.9c0.1,0.1,0.2,1.5,0.1,2.4c0,0.1-0.2,0-0.2,0c-0.1-1.4-1.5-2.9-3.8-2.9c-2.4,0-4.2,1.7-4.2,4.7
						c0,3.7,2.1,5.6,4.5,5.6c1.7,0,2-0.5,2.1-0.7c0.1-0.2,0.1-0.7,0.1-1.2c0-2.2-0.1-2.3-1.9-2.4c0,0-0.1-0.2,0-0.2
						c0.7,0.1,1.9,0.1,2.8,0.1c0.6,0,1.7,0,2.2-0.1c0.1,0,0,0.2,0,0.2C257.7,32.2,257.7,32.4,257.7,34.5z"/>
					<path class="st0" d="M265.9,36.6c-0.5-0.1-1.6-0.1-2.3-0.1c-0.9,0-2,0-2.7,0.1c-0.1,0,0-0.2,0-0.2c1.5-0.1,1.7-0.5,1.7-2.6v-5
						c0-2.2-0.2-2.4-1.7-2.6c0,0-0.1-0.2,0-0.2c0.7,0.1,1.7,0.1,2.7,0.1c0.6,0,1.9-0.1,2.3-0.1c0.1,0,0,0.2,0,0.2
						c-1.6,0.1-1.7,0.6-1.7,2.6v5c0,2.1,0.1,2.4,1.7,2.6V36.6z"/>
					<path class="st0" d="M273.7,36.9c-3.4,0-5.8-2.6-5.8-5.5s2.6-5.8,6.1-5.8c3.4,0,5.8,2.6,5.8,5.6
						C279.8,34.1,277.2,36.9,273.7,36.9z M273.7,26.1c-2.3,0-4.1,1.5-4.1,4.5c0,3.7,2.3,5.7,4.5,5.7c2.3,0,4.1-1.5,4.1-4.5
						C278.3,28,276,26.1,273.7,26.1z"/>
					<path class="st0" d="M291.8,28.6v4.2c0,2.2-1.6,4.1-4.4,4.1c-2.4,0-4.5-1.6-4.5-4.2v-4c0-2.2-0.2-2.4-1.7-2.7
						c0,0-0.1-0.2,0-0.2c0.7,0.1,1.7,0.1,2.7,0.1c0.7,0,1.9,0,2.3-0.1c0.1,0,0.1,0.2,0,0.2c-1.5,0.1-1.7,0.6-1.7,2.7v3.6
						c0,2.7,1.7,3.8,3.5,3.8c2.2,0,3.5-1.3,3.5-3.6v-4c0-2-0.2-2.3-1.7-2.4c-0.1,0-0.1-0.2,0-0.2c0.7,0.1,1.3,0.1,2.1,0.1
						c0.6,0,1.4,0,1.9-0.1c0.1,0,0,0.2,0,0.2C292,26.1,291.8,26.6,291.8,28.6z"/>
					<path class="st0" d="M298.3,36.9c-1.2,0-2.1-0.5-2.9-1.3c-0.1-0.1,0-1.4,0.1-2.4c0-0.1,0.2,0,0.2,0c0.1,1.7,0.9,3,2.7,3
						c1.3,0,2-0.7,2-1.9c0-2.8-4.8-2.8-4.8-5.8c0-1.5,1.4-3,3.1-3c0.9,0,1.5,0.2,2.1,0.6c0.1,0.1,0.2,0.9,0.2,2.1h-0.2
						c-0.2-1.3-0.9-2.1-2.2-2.1c-1.2,0-1.9,0.5-1.9,1.6c0,2.7,4.7,2.6,4.7,5.8C301.8,35.2,300.4,36.9,298.3,36.9z"/>
				</g>
			</g>
			<g>
				<path class="st0" d="M102.6,29.2c0,0.1,0,0.3,0,0.5h-0.1c-0.1-0.3-0.3-0.6-1.2-0.6h-0.7v3.4c0,0.9,0.1,1.2,0.8,1.3l0,0
					c-0.2,0-0.7,0-1.2,0s-0.9,0-1.3,0v-0.1c0.7-0.1,0.8-0.2,0.8-1.3v-3.4h-0.7c-0.8,0-1.2,0.2-1.3,0.6h0.1c0-0.1,0-0.6,0-0.7
					s0-0.2,0-0.3H98c0,0.2,0.1,0.2,1.3,0.2h2.2c1.2,0,1.2,0,1.3-0.2h0.1C102.6,28.6,102.6,28.8,102.6,29.2z"/>
				<path class="st0" d="M108.7,33.7c-0.5,0-0.8,0-1.3,0v-0.1c0.6-0.1,0.7-0.2,0.7-1.3v-1.2h-2.8v1.2c0,0.9,0.1,1.3,0.7,1.3v0.1
					c-0.2,0-0.7,0-0.9,0c-0.5,0-0.9,0-1.4,0v-0.1c0.7-0.1,0.8-0.2,0.8-1.3V30c0-0.9-0.1-1.2-0.8-1.3v-0.1c0.3,0,0.8,0.1,1.4,0.1
					c0.3,0,0.7,0,0.9-0.1v0.1c-0.6,0-0.7,0.2-0.7,1.3v0.9h2.8V30c0-0.9-0.1-1.2-0.7-1.3v-0.1c0.3,0,0.7,0.1,1.3,0.1
					c0.3,0,0.9,0,1.2-0.1v0.1c-0.8,0.1-0.8,0.2-0.8,1.3v2.3c0,0.9,0,1.2,0.8,1.3v0.1C109.8,33.7,109.1,33.7,108.7,33.7z"/>
				<path class="st0" d="M115,33.6c0,0.1-0.1,0.1-0.2,0.1c-0.2,0-0.7,0-1.4,0c-0.7,0-1.7,0-2.2,0v-0.1c0.7-0.1,0.8-0.2,0.8-1.3V30
					c0-0.9-0.1-1.2-0.8-1.3v-0.1c0.6,0,1.5,0.1,2.2,0.1c0.5,0,1.2,0,1.5-0.1c0,0.1,0,0.3,0,0.5s0,0.3,0,0.3h-0.1
					c0-0.3-0.1-0.5-1.3-0.5h-0.7c0,0.2,0,0.5,0,0.9v0.9h0.5c0.8,0,0.9,0,0.9-0.3h0.1c0,0.1,0,0.5,0,0.6s0,0.3,0,0.5h-0.1
					c0-0.1,0-0.3-0.9-0.3h-0.5v1.2c0,0.9,0.1,1.2,0.5,1.2h0.3c1.3,0,1.3-0.2,1.4-0.7h0.1C115.1,32.8,115,33.2,115,33.6z"/>
			</g>
		</g>
	</g>
	<g>
		<circle class="st1" cx="43.1" cy="43.6" r="42.9"/>
		<g>
			<path class="st2" d="M43.1,86.7C19.3,86.7,0,67.4,0,43.6S19.3,0.5,43.1,0.5s43.1,19.3,43.1,43.1S66.9,86.7,43.1,86.7z M43.1,5.7
				c-21,0-38,17-38,37.9s17,38,38,38s38-17,38-38C80.9,22.8,64,5.7,43.1,5.7z"/>
			<g>
				<path class="st3" d="M43.1,59.5c9.6-3.1,19.9-2.3,29.1,2.1c3.1-5.1,5-11.3,5-17.8C77.4,24.9,62.1,9.4,43.1,9.4
					S8.7,24.9,8.7,43.6c0,6.5,1.9,12.7,5,17.9C23.2,57,33.4,56.2,43.1,59.5z M20.4,34.5c1.4-0.5,2.9,0.5,3.6,2.1
					c0.3,0.9,0.2,2.1-0.2,2.8c2.3,2.9,5.2,6.4,6.5,6.4c1.4,0,3-6.4,4.3-11.4c-0.7-0.6-1.4-1.5-1.4-2.6c-0.2-2,0.8-3.6,2.4-3.6
					c1.6-0.1,2.9,1.4,3,3.1c0.1,1.3-0.5,2.3-1.3,2.9c1.6,5,4,11.4,5.7,11.4s4.1-6.4,5.7-11.4c-0.8-0.6-1.4-1.7-1.3-2.9
					c0.1-1.9,1.5-3.1,3-3.1c1.6,0.1,2.7,1.6,2.6,3.5c-0.1,1.2-0.6,2.1-1.5,2.7c1.2,5,2.8,11.4,4.4,11.4c1.4,0,4.2-3.1,6.4-6.2
					c-0.7-0.7-0.8-1.9-0.5-3c0.6-1.6,2.2-2.4,3.6-2.1c1.4,0.5,2,2.1,1.4,3.6c-0.3,0.9-1.2,1.6-2,2l-2.7,15.7
					c-6.4-1-12.9-0.6-19.2,1.4c-6.3-1.9-12.7-2.3-19.1-1.4l-2.8-15.6c-0.9-0.2-1.7-0.9-2.2-2.1C18.5,36.6,19.1,35,20.4,34.5z"/>
				<path class="st3" d="M43.1,67.2c0,0-12.9-8.3-27.6-3C21.8,72.6,31.8,78,43.1,78s21.4-5.6,27.6-13.9
					C56.2,58.9,43.1,67.2,43.1,67.2z"/>
			</g>
			<g>
				<polygon class="st4" points="28.4,18.9 29.7,22.6 33.4,22.6 30.3,24.6 31.6,28.4 28.4,26 25.4,28.4 26.7,24.6 23.5,22.6 
					27.4,22.6 				"/>
				<polygon class="st4" points="43.1,15.3 44.2,19 48,19 45,21.2 46.1,24.9 43.1,22.6 40.1,24.9 41.3,21.2 38.1,19 42,19 				"/>
				<polygon class="st4" points="57.9,18.3 59,21.9 62.8,21.9 59.8,24 60.9,27.8 57.9,25.4 54.8,27.8 56.1,24 52.9,21.9 56.8,21.9 
									"/>
			</g>
		</g>
	</g>
</g>
</svg>
